<mxfile host="Electron" modified="2024-05-17T10:09:04.434Z" agent="Mozilla/5.0 (Windows NT 10.0; Win64; x64) AppleWebKit/537.36 (KHTML, like Gecko) draw.io/24.4.0 Chrome/120.0.6099.109 Electron/28.1.0 Safari/537.36" etag="8uV7MGm9ckjbHcrgKJMB" version="24.4.0" type="device">
  <diagram name="Страница — 1" id="-rV2kJQ7eQGyMc1xFudD">
    <mxGraphModel dx="1687" dy="1005" grid="1" gridSize="10" guides="1" tooltips="1" connect="1" arrows="1" fold="1" page="1" pageScale="1" pageWidth="827" pageHeight="1169" math="0" shadow="0">
      <root>
        <mxCell id="0" />
        <mxCell id="1" parent="0" />
        <mxCell id="U7MXnnjYINnltX5LScJu-23" style="edgeStyle=orthogonalEdgeStyle;rounded=0;orthogonalLoop=1;jettySize=auto;html=1;exitX=0.5;exitY=1;exitDx=0;exitDy=0;exitPerimeter=0;" edge="1" parent="1" source="U7MXnnjYINnltX5LScJu-24" target="U7MXnnjYINnltX5LScJu-29">
          <mxGeometry relative="1" as="geometry" />
        </mxCell>
        <mxCell id="U7MXnnjYINnltX5LScJu-24" value="Начало работы" style="strokeWidth=2;html=1;shape=mxgraph.flowchart.terminator;whiteSpace=wrap;" vertex="1" parent="1">
          <mxGeometry x="364" y="20" width="100" height="60" as="geometry" />
        </mxCell>
        <mxCell id="U7MXnnjYINnltX5LScJu-25" style="edgeStyle=orthogonalEdgeStyle;rounded=0;orthogonalLoop=1;jettySize=auto;html=1;exitX=0;exitY=0.5;exitDx=0;exitDy=0;entryX=0.5;entryY=0;entryDx=0;entryDy=0;" edge="1" parent="1" source="U7MXnnjYINnltX5LScJu-29" target="U7MXnnjYINnltX5LScJu-32">
          <mxGeometry relative="1" as="geometry" />
        </mxCell>
        <mxCell id="U7MXnnjYINnltX5LScJu-26" value="Нет" style="edgeLabel;html=1;align=center;verticalAlign=middle;resizable=0;points=[];" vertex="1" connectable="0" parent="U7MXnnjYINnltX5LScJu-25">
          <mxGeometry x="-0.8627" relative="1" as="geometry">
            <mxPoint as="offset" />
          </mxGeometry>
        </mxCell>
        <mxCell id="U7MXnnjYINnltX5LScJu-27" style="edgeStyle=orthogonalEdgeStyle;rounded=0;orthogonalLoop=1;jettySize=auto;html=1;exitX=1;exitY=0.5;exitDx=0;exitDy=0;entryX=0.5;entryY=0;entryDx=0;entryDy=0;" edge="1" parent="1" source="U7MXnnjYINnltX5LScJu-29" target="U7MXnnjYINnltX5LScJu-39">
          <mxGeometry relative="1" as="geometry" />
        </mxCell>
        <mxCell id="U7MXnnjYINnltX5LScJu-28" value="Да" style="edgeLabel;html=1;align=center;verticalAlign=middle;resizable=0;points=[];" vertex="1" connectable="0" parent="U7MXnnjYINnltX5LScJu-27">
          <mxGeometry x="-0.8921" y="3" relative="1" as="geometry">
            <mxPoint as="offset" />
          </mxGeometry>
        </mxCell>
        <mxCell id="U7MXnnjYINnltX5LScJu-29" value="action == 1" style="rhombus;whiteSpace=wrap;html=1;" vertex="1" parent="1">
          <mxGeometry x="359" y="100" width="110" height="80" as="geometry" />
        </mxCell>
        <mxCell id="U7MXnnjYINnltX5LScJu-30" style="edgeStyle=orthogonalEdgeStyle;rounded=0;orthogonalLoop=1;jettySize=auto;html=1;exitX=1;exitY=0.5;exitDx=0;exitDy=0;entryX=0;entryY=0.5;entryDx=0;entryDy=0;" edge="1" parent="1" source="U7MXnnjYINnltX5LScJu-32" target="U7MXnnjYINnltX5LScJu-37">
          <mxGeometry relative="1" as="geometry" />
        </mxCell>
        <mxCell id="U7MXnnjYINnltX5LScJu-31" value="Да" style="edgeLabel;html=1;align=center;verticalAlign=middle;resizable=0;points=[];" vertex="1" connectable="0" parent="U7MXnnjYINnltX5LScJu-30">
          <mxGeometry x="-0.6905" y="-2" relative="1" as="geometry">
            <mxPoint as="offset" />
          </mxGeometry>
        </mxCell>
        <mxCell id="U7MXnnjYINnltX5LScJu-32" value="action == 2" style="rhombus;whiteSpace=wrap;html=1;" vertex="1" parent="1">
          <mxGeometry x="160" y="200" width="110" height="80" as="geometry" />
        </mxCell>
        <mxCell id="U7MXnnjYINnltX5LScJu-33" value="Ошибка Некорректный ввод" style="strokeWidth=2;html=1;shape=mxgraph.flowchart.terminator;whiteSpace=wrap;" vertex="1" parent="1">
          <mxGeometry x="30" y="280" width="100" height="60" as="geometry" />
        </mxCell>
        <mxCell id="U7MXnnjYINnltX5LScJu-34" style="edgeStyle=orthogonalEdgeStyle;rounded=0;orthogonalLoop=1;jettySize=auto;html=1;exitX=0;exitY=0.5;exitDx=0;exitDy=0;entryX=0.5;entryY=0;entryDx=0;entryDy=0;entryPerimeter=0;" edge="1" parent="1" source="U7MXnnjYINnltX5LScJu-32" target="U7MXnnjYINnltX5LScJu-33">
          <mxGeometry relative="1" as="geometry" />
        </mxCell>
        <mxCell id="U7MXnnjYINnltX5LScJu-35" value="Нет" style="edgeLabel;html=1;align=center;verticalAlign=middle;resizable=0;points=[];" vertex="1" connectable="0" parent="U7MXnnjYINnltX5LScJu-34">
          <mxGeometry x="-0.7833" y="-2" relative="1" as="geometry">
            <mxPoint as="offset" />
          </mxGeometry>
        </mxCell>
        <mxCell id="U7MXnnjYINnltX5LScJu-36" style="edgeStyle=orthogonalEdgeStyle;rounded=0;orthogonalLoop=1;jettySize=auto;html=1;exitX=0.5;exitY=1;exitDx=0;exitDy=0;" edge="1" parent="1" source="U7MXnnjYINnltX5LScJu-37" target="U7MXnnjYINnltX5LScJu-40">
          <mxGeometry relative="1" as="geometry" />
        </mxCell>
        <mxCell id="U7MXnnjYINnltX5LScJu-37" value="Ввод текста" style="shape=process;whiteSpace=wrap;html=1;backgroundOutline=1;" vertex="1" parent="1">
          <mxGeometry x="354" y="210" width="120" height="60" as="geometry" />
        </mxCell>
        <mxCell id="U7MXnnjYINnltX5LScJu-38" style="edgeStyle=orthogonalEdgeStyle;rounded=0;orthogonalLoop=1;jettySize=auto;html=1;exitX=0.5;exitY=1;exitDx=0;exitDy=0;" edge="1" parent="1" source="U7MXnnjYINnltX5LScJu-39" target="U7MXnnjYINnltX5LScJu-41">
          <mxGeometry relative="1" as="geometry" />
        </mxCell>
        <mxCell id="U7MXnnjYINnltX5LScJu-39" value="Ввод и обработка текста" style="shape=process;whiteSpace=wrap;html=1;backgroundOutline=1;" vertex="1" parent="1">
          <mxGeometry x="580" y="210" width="120" height="60" as="geometry" />
        </mxCell>
        <mxCell id="U7MXnnjYINnltX5LScJu-58" style="edgeStyle=orthogonalEdgeStyle;rounded=0;orthogonalLoop=1;jettySize=auto;html=1;exitX=0.5;exitY=1;exitDx=0;exitDy=0;entryX=0.5;entryY=0;entryDx=0;entryDy=0;" edge="1" parent="1" source="U7MXnnjYINnltX5LScJu-40" target="U7MXnnjYINnltX5LScJu-56">
          <mxGeometry relative="1" as="geometry" />
        </mxCell>
        <mxCell id="U7MXnnjYINnltX5LScJu-40" value="Расшифрование" style="shape=process;whiteSpace=wrap;html=1;backgroundOutline=1;" vertex="1" parent="1">
          <mxGeometry x="354" y="300" width="120" height="60" as="geometry" />
        </mxCell>
        <mxCell id="U7MXnnjYINnltX5LScJu-41" value="Шифрование" style="shape=process;whiteSpace=wrap;html=1;backgroundOutline=1;" vertex="1" parent="1">
          <mxGeometry x="580" y="300" width="120" height="60" as="geometry" />
        </mxCell>
        <mxCell id="U7MXnnjYINnltX5LScJu-44" style="edgeStyle=orthogonalEdgeStyle;rounded=0;orthogonalLoop=1;jettySize=auto;html=1;exitX=0.5;exitY=1;exitDx=0;exitDy=0;entryX=0.5;entryY=0;entryDx=0;entryDy=0;" edge="1" parent="1" source="U7MXnnjYINnltX5LScJu-42" target="U7MXnnjYINnltX5LScJu-43">
          <mxGeometry relative="1" as="geometry" />
        </mxCell>
        <mxCell id="U7MXnnjYINnltX5LScJu-42" value="&lt;strong&gt;Получение&lt;/strong&gt;: &lt;code&gt;element&lt;/code&gt; = текущий символ открытого текста" style="rounded=0;whiteSpace=wrap;html=1;" vertex="1" parent="1">
          <mxGeometry x="580" y="390" width="120" height="60" as="geometry" />
        </mxCell>
        <mxCell id="U7MXnnjYINnltX5LScJu-48" style="edgeStyle=orthogonalEdgeStyle;rounded=0;orthogonalLoop=1;jettySize=auto;html=1;exitX=0.5;exitY=1;exitDx=0;exitDy=0;entryX=0.5;entryY=0;entryDx=0;entryDy=0;" edge="1" parent="1" source="U7MXnnjYINnltX5LScJu-43" target="U7MXnnjYINnltX5LScJu-45">
          <mxGeometry relative="1" as="geometry" />
        </mxCell>
        <mxCell id="U7MXnnjYINnltX5LScJu-43" value="&amp;nbsp;индекс зашифрованного символа = (индекс &lt;code&gt;element&lt;/code&gt; + индекс соответствующего символа &lt;code&gt;keyword&lt;/code&gt;) % длина алфавита" style="rounded=0;whiteSpace=wrap;html=1;" vertex="1" parent="1">
          <mxGeometry x="575" y="470" width="130" height="101" as="geometry" />
        </mxCell>
        <mxCell id="U7MXnnjYINnltX5LScJu-51" style="edgeStyle=orthogonalEdgeStyle;rounded=0;orthogonalLoop=1;jettySize=auto;html=1;exitX=0.5;exitY=1;exitDx=0;exitDy=0;entryX=0.5;entryY=0;entryDx=0;entryDy=0;" edge="1" parent="1" source="U7MXnnjYINnltX5LScJu-45" target="U7MXnnjYINnltX5LScJu-50">
          <mxGeometry relative="1" as="geometry" />
        </mxCell>
        <mxCell id="U7MXnnjYINnltX5LScJu-52" value="Да" style="edgeLabel;html=1;align=center;verticalAlign=middle;resizable=0;points=[];" vertex="1" connectable="0" parent="U7MXnnjYINnltX5LScJu-51">
          <mxGeometry x="-0.4941" relative="1" as="geometry">
            <mxPoint as="offset" />
          </mxGeometry>
        </mxCell>
        <mxCell id="U7MXnnjYINnltX5LScJu-45" value="Если &lt;code&gt;mode&lt;/code&gt; == &quot;selfkey&quot;, добавление &lt;code&gt;open_text[i]&lt;/code&gt; к &lt;code&gt;keyword&lt;/code&gt;" style="rhombus;whiteSpace=wrap;html=1;" vertex="1" parent="1">
          <mxGeometry x="537.5" y="600" width="205" height="100" as="geometry" />
        </mxCell>
        <mxCell id="U7MXnnjYINnltX5LScJu-46" value="Ошибка Некорректный ввод" style="strokeWidth=2;html=1;shape=mxgraph.flowchart.terminator;whiteSpace=wrap;" vertex="1" parent="1">
          <mxGeometry x="790" y="680" width="100" height="60" as="geometry" />
        </mxCell>
        <mxCell id="U7MXnnjYINnltX5LScJu-47" style="edgeStyle=orthogonalEdgeStyle;rounded=0;orthogonalLoop=1;jettySize=auto;html=1;exitX=1;exitY=0.5;exitDx=0;exitDy=0;entryX=0.5;entryY=0;entryDx=0;entryDy=0;entryPerimeter=0;" edge="1" parent="1" source="U7MXnnjYINnltX5LScJu-45" target="U7MXnnjYINnltX5LScJu-46">
          <mxGeometry relative="1" as="geometry" />
        </mxCell>
        <mxCell id="U7MXnnjYINnltX5LScJu-49" value="Нет" style="edgeLabel;html=1;align=center;verticalAlign=middle;resizable=0;points=[];" vertex="1" connectable="0" parent="U7MXnnjYINnltX5LScJu-47">
          <mxGeometry x="-0.7246" y="-1" relative="1" as="geometry">
            <mxPoint as="offset" />
          </mxGeometry>
        </mxCell>
        <mxCell id="U7MXnnjYINnltX5LScJu-73" style="edgeStyle=orthogonalEdgeStyle;rounded=0;orthogonalLoop=1;jettySize=auto;html=1;exitX=0.5;exitY=1;exitDx=0;exitDy=0;entryX=0.5;entryY=0;entryDx=0;entryDy=0;" edge="1" parent="1" source="U7MXnnjYINnltX5LScJu-50" target="U7MXnnjYINnltX5LScJu-72">
          <mxGeometry relative="1" as="geometry" />
        </mxCell>
        <mxCell id="U7MXnnjYINnltX5LScJu-50" value="Если &lt;code&gt;mode&lt;/code&gt; == &quot;cipherkey&quot;, добавление последнего зашифрованного символа к &lt;code&gt;keyword&lt;/code&gt;" style="rhombus;whiteSpace=wrap;html=1;" vertex="1" parent="1">
          <mxGeometry x="537.5" y="750" width="205" height="100" as="geometry" />
        </mxCell>
        <mxCell id="U7MXnnjYINnltX5LScJu-53" value="Ошибка Некорректный ввод" style="strokeWidth=2;html=1;shape=mxgraph.flowchart.terminator;whiteSpace=wrap;" vertex="1" parent="1">
          <mxGeometry x="780" y="850" width="100" height="60" as="geometry" />
        </mxCell>
        <mxCell id="U7MXnnjYINnltX5LScJu-54" style="edgeStyle=orthogonalEdgeStyle;rounded=0;orthogonalLoop=1;jettySize=auto;html=1;exitX=1;exitY=0.5;exitDx=0;exitDy=0;entryX=0.5;entryY=0;entryDx=0;entryDy=0;entryPerimeter=0;" edge="1" parent="1" source="U7MXnnjYINnltX5LScJu-50" target="U7MXnnjYINnltX5LScJu-53">
          <mxGeometry relative="1" as="geometry" />
        </mxCell>
        <mxCell id="U7MXnnjYINnltX5LScJu-55" value="Нет" style="edgeLabel;html=1;align=center;verticalAlign=middle;resizable=0;points=[];" vertex="1" connectable="0" parent="U7MXnnjYINnltX5LScJu-54">
          <mxGeometry x="-0.7959" relative="1" as="geometry">
            <mxPoint as="offset" />
          </mxGeometry>
        </mxCell>
        <mxCell id="U7MXnnjYINnltX5LScJu-59" style="edgeStyle=orthogonalEdgeStyle;rounded=0;orthogonalLoop=1;jettySize=auto;html=1;exitX=0.5;exitY=1;exitDx=0;exitDy=0;entryX=0.5;entryY=0;entryDx=0;entryDy=0;" edge="1" parent="1" source="U7MXnnjYINnltX5LScJu-56" target="U7MXnnjYINnltX5LScJu-57">
          <mxGeometry relative="1" as="geometry" />
        </mxCell>
        <mxCell id="U7MXnnjYINnltX5LScJu-56" value="&lt;strong&gt;Инициализация&lt;/strong&gt;: &lt;code&gt;decrypted_text&lt;/code&gt; = &quot;&quot; и &lt;code&gt;keyword&lt;/code&gt; = &lt;code&gt;key_letter&lt;/code&gt;" style="rounded=0;whiteSpace=wrap;html=1;" vertex="1" parent="1">
          <mxGeometry x="354" y="390" width="120" height="60" as="geometry" />
        </mxCell>
        <mxCell id="U7MXnnjYINnltX5LScJu-61" style="edgeStyle=orthogonalEdgeStyle;rounded=0;orthogonalLoop=1;jettySize=auto;html=1;exitX=0.5;exitY=1;exitDx=0;exitDy=0;entryX=0.5;entryY=0;entryDx=0;entryDy=0;" edge="1" parent="1" source="U7MXnnjYINnltX5LScJu-57" target="U7MXnnjYINnltX5LScJu-60">
          <mxGeometry relative="1" as="geometry" />
        </mxCell>
        <mxCell id="U7MXnnjYINnltX5LScJu-57" value="индекс расшифрованного символа = (индекс &lt;code&gt;element&lt;/code&gt; - индекс соответствующего символа &lt;code&gt;keyword&lt;/code&gt; + длина алфавита) % длина алфавита" style="rounded=0;whiteSpace=wrap;html=1;" vertex="1" parent="1">
          <mxGeometry x="351" y="470" width="126" height="120" as="geometry" />
        </mxCell>
        <mxCell id="U7MXnnjYINnltX5LScJu-66" style="edgeStyle=orthogonalEdgeStyle;rounded=0;orthogonalLoop=1;jettySize=auto;html=1;exitX=0.5;exitY=1;exitDx=0;exitDy=0;entryX=0.5;entryY=0;entryDx=0;entryDy=0;" edge="1" parent="1" source="U7MXnnjYINnltX5LScJu-60" target="U7MXnnjYINnltX5LScJu-65">
          <mxGeometry relative="1" as="geometry" />
        </mxCell>
        <mxCell id="U7MXnnjYINnltX5LScJu-67" value="Да" style="edgeLabel;html=1;align=center;verticalAlign=middle;resizable=0;points=[];" vertex="1" connectable="0" parent="U7MXnnjYINnltX5LScJu-66">
          <mxGeometry x="-0.3971" y="-1" relative="1" as="geometry">
            <mxPoint as="offset" />
          </mxGeometry>
        </mxCell>
        <mxCell id="U7MXnnjYINnltX5LScJu-60" value="Если &lt;code&gt;mode&lt;/code&gt; == &quot;selfkey&quot;, добавление последнего расшифрованного символа к &lt;code&gt;keyword&lt;/code&gt;" style="rhombus;whiteSpace=wrap;html=1;" vertex="1" parent="1">
          <mxGeometry x="311.5" y="610" width="205" height="100" as="geometry" />
        </mxCell>
        <mxCell id="U7MXnnjYINnltX5LScJu-62" value="Ошибка Некорректный ввод" style="strokeWidth=2;html=1;shape=mxgraph.flowchart.terminator;whiteSpace=wrap;" vertex="1" parent="1">
          <mxGeometry x="180" y="710" width="100" height="60" as="geometry" />
        </mxCell>
        <mxCell id="U7MXnnjYINnltX5LScJu-63" style="edgeStyle=orthogonalEdgeStyle;rounded=0;orthogonalLoop=1;jettySize=auto;html=1;exitX=0;exitY=0.5;exitDx=0;exitDy=0;entryX=0.5;entryY=0;entryDx=0;entryDy=0;entryPerimeter=0;" edge="1" parent="1" source="U7MXnnjYINnltX5LScJu-60" target="U7MXnnjYINnltX5LScJu-62">
          <mxGeometry relative="1" as="geometry" />
        </mxCell>
        <mxCell id="U7MXnnjYINnltX5LScJu-64" value="Нет" style="edgeLabel;html=1;align=center;verticalAlign=middle;resizable=0;points=[];" vertex="1" connectable="0" parent="U7MXnnjYINnltX5LScJu-63">
          <mxGeometry x="-0.7721" y="1" relative="1" as="geometry">
            <mxPoint as="offset" />
          </mxGeometry>
        </mxCell>
        <mxCell id="U7MXnnjYINnltX5LScJu-74" style="edgeStyle=orthogonalEdgeStyle;rounded=0;orthogonalLoop=1;jettySize=auto;html=1;exitX=0.5;exitY=1;exitDx=0;exitDy=0;entryX=0.5;entryY=0;entryDx=0;entryDy=0;" edge="1" parent="1" source="U7MXnnjYINnltX5LScJu-65" target="U7MXnnjYINnltX5LScJu-72">
          <mxGeometry relative="1" as="geometry" />
        </mxCell>
        <mxCell id="U7MXnnjYINnltX5LScJu-65" value="Если &lt;code&gt;mode&lt;/code&gt; == &quot;cipherkey&quot;, добавление &lt;code&gt;encrypted_text[i]&lt;/code&gt; к &lt;code&gt;keyword&lt;/code&gt;" style="rhombus;whiteSpace=wrap;html=1;" vertex="1" parent="1">
          <mxGeometry x="311.5" y="750" width="205" height="100" as="geometry" />
        </mxCell>
        <mxCell id="U7MXnnjYINnltX5LScJu-68" value="Ошибка Некорректный ввод" style="strokeWidth=2;html=1;shape=mxgraph.flowchart.terminator;whiteSpace=wrap;" vertex="1" parent="1">
          <mxGeometry x="180" y="850" width="100" height="60" as="geometry" />
        </mxCell>
        <mxCell id="U7MXnnjYINnltX5LScJu-69" style="edgeStyle=orthogonalEdgeStyle;rounded=0;orthogonalLoop=1;jettySize=auto;html=1;exitX=0;exitY=0.5;exitDx=0;exitDy=0;entryX=0.5;entryY=0;entryDx=0;entryDy=0;entryPerimeter=0;" edge="1" parent="1" source="U7MXnnjYINnltX5LScJu-65" target="U7MXnnjYINnltX5LScJu-68">
          <mxGeometry relative="1" as="geometry" />
        </mxCell>
        <mxCell id="U7MXnnjYINnltX5LScJu-70" value="Нет" style="edgeLabel;html=1;align=center;verticalAlign=middle;resizable=0;points=[];" vertex="1" connectable="0" parent="U7MXnnjYINnltX5LScJu-69">
          <mxGeometry x="-0.7363" y="-4" relative="1" as="geometry">
            <mxPoint as="offset" />
          </mxGeometry>
        </mxCell>
        <mxCell id="U7MXnnjYINnltX5LScJu-72" value="Вывод результата работы алгоритма" style="shape=parallelogram;perimeter=parallelogramPerimeter;whiteSpace=wrap;html=1;fixedSize=1;" vertex="1" parent="1">
          <mxGeometry x="450" y="900" width="136" height="60" as="geometry" />
        </mxCell>
      </root>
    </mxGraphModel>
  </diagram>
</mxfile>
